<?xml version="1.0" encoding="utf-8"?>
<!-- Generator: Adobe Illustrator 26.0.2, SVG Export Plug-In . SVG Version: 6.00 Build 0)  -->
<svg version="1.1" id="behance" xmlns="http://www.w3.org/2000/svg" xmlns:xlink="http://www.w3.org/1999/xlink" x="0px" y="0px"
	 viewBox="0 0 24 24" style="enable-background:new 0 0 24 24;" xml:space="preserve">
<style type="text/css">
	.beh{fill:#FFFFFF;}
</style>
<path class="beh" d="M10.1,11.6c1.2,0.7,1.9,2,1.9,3.4c0,2.2-1.8,4-4,4H2v-8V5h5c2.2,0,4,1.8,4,4C11,10,10.6,10.9,10.1,11.6z M4,13
	v4h4c1.1,0,2-0.9,2-2s-0.9-2-2-2H7H4z M17.6,17c1,0,1.7-0.2,2-0.5c0.2-0.2,0.3-0.4,0.3-0.5h2c0,1.6-1.5,3-4.3,3S13,17.2,13,14
	c0-3,1.6-5,4.5-5s4.5,2,4.5,5v1h-6.9C15.4,16.4,16.2,17,17.6,17z M19.9,13c-0.2-1.3-1-2-2.4-2s-2.2,0.7-2.4,2H19.9z M14,8V6h7v2H14z
	 M4,7v4h3c1.1,0,2-0.9,2-2S8.1,7,7,7H4z"/>
</svg>
