<?xml version="1.0" encoding="utf-8"?>
<!-- Generator: Adobe Illustrator 26.0.2, SVG Export Plug-In . SVG Version: 6.00 Build 0)  -->
<svg version="1.1" id="Layer_1" xmlns="http://www.w3.org/2000/svg" xmlns:xlink="http://www.w3.org/1999/xlink" x="0px" y="0px"
	 viewBox="0 0 48 48" style="enable-background:new 0 0 48 48;" xml:space="preserve">
<style type="text/css">
	.st0{fill:none;stroke:#FFFFFF;stroke-width:3;stroke-linecap:round;stroke-linejoin:round;stroke-miterlimit:8;}
</style>
<path class="st0" d="M14,4h20c5.5,0,10,4.5,10,10v20c0,5.5-4.5,10-10,10H14C8.5,44,4,39.5,4,34V14C4,8.5,8.5,4,14,4z"/>
<path class="st0" d="M32,22.7c0.6,4.4-2.4,8.4-6.7,9.1c-4.4,0.6-8.4-2.4-9.1-6.7c-0.6-4.4,2.4-8.4,6.7-9.1c0.8-0.1,1.6-0.1,2.3,0
	C28.7,16.5,31.5,19.3,32,22.7z"/>
<line class="st0" x1="35" y1="13" x2="35" y2="13"/>
</svg>
