<svg id="Layer_1" data-name="Layer 1" xmlns="http://www.w3.org/2000/svg" viewBox="0 0 983.22 983.22"><defs><style>.cls-1{fill:#fff;fill-rule:evenodd;}</style></defs><path class="cls-1" d="M499.65,8.74c271.51,0,491.61,220.1,491.61,491.61S771.16,992,499.65,992,8,771.86,8,500.35,228.14,8.74,499.65,8.74ZM279.71,258.46H403.92v51.06c28.18-23.66,53.86-40,76.74-49.35A187.68,187.68,0,0,1,551,246.32c49.18,0,91.06,17.12,125.3,51.37q43.2,43.89,43.27,129.35V754.38H596.31V537.55q0-88.72-7.94-117.67c-5.29-19.46-14.63-34.25-27.7-44.36-13.23-10.12-29.58-15.26-48.88-15.26q-37.82,0-64.91,25.22c-18.05,16.81-30.51,40.16-37.51,69.73-3.58,15.57-5.45,49-5.45,100.56V754.38H279.71V258.46Z" transform="translate(-8.04 -8.74)"/></svg>